<mxfile host="app.diagrams.net" modified="2021-03-18T16:40:05.926Z" agent="5.0 (Windows NT 10.0; Win64; x64) AppleWebKit/537.36 (KHTML, like Gecko) Chrome/89.0.4389.90 Safari/537.36 Edg/89.0.774.54" etag="YtO7SKI0usqmFnVuN0BJ" version="14.4.9" type="github">
  <diagram id="Y8P8ATA0qp8-HvT-vFh0" name="Page-1">
    <mxGraphModel dx="968" dy="985" grid="1" gridSize="10" guides="1" tooltips="1" connect="1" arrows="1" fold="1" page="1" pageScale="1" pageWidth="827" pageHeight="1169" math="0" shadow="0">
      <root>
        <mxCell id="0" />
        <mxCell id="1" parent="0" />
        <mxCell id="SYz_vjeAxdqTbxEcC4c_-1" value="Vin" style="rounded=0;whiteSpace=wrap;html=1;fontStyle=4" vertex="1" parent="1">
          <mxGeometry x="240" y="170" width="80" height="30" as="geometry" />
        </mxCell>
        <mxCell id="SYz_vjeAxdqTbxEcC4c_-2" value="Price" style="rounded=0;whiteSpace=wrap;html=1;" vertex="1" parent="1">
          <mxGeometry x="320" y="170" width="80" height="30" as="geometry" />
        </mxCell>
        <mxCell id="SYz_vjeAxdqTbxEcC4c_-3" value="Model" style="rounded=0;whiteSpace=wrap;html=1;" vertex="1" parent="1">
          <mxGeometry x="400" y="170" width="80" height="30" as="geometry" />
        </mxCell>
        <mxCell id="SYz_vjeAxdqTbxEcC4c_-6" value="&lt;u&gt;Sid&lt;/u&gt;" style="rounded=0;whiteSpace=wrap;html=1;" vertex="1" parent="1">
          <mxGeometry x="240" y="250" width="80" height="30" as="geometry" />
        </mxCell>
        <mxCell id="SYz_vjeAxdqTbxEcC4c_-7" value="Name" style="rounded=0;whiteSpace=wrap;html=1;" vertex="1" parent="1">
          <mxGeometry x="320" y="250" width="80" height="30" as="geometry" />
        </mxCell>
        <mxCell id="SYz_vjeAxdqTbxEcC4c_-11" value="&lt;u&gt;SSN&lt;/u&gt;" style="rounded=0;whiteSpace=wrap;html=1;" vertex="1" parent="1">
          <mxGeometry x="240" y="330" width="80" height="30" as="geometry" />
        </mxCell>
        <mxCell id="SYz_vjeAxdqTbxEcC4c_-12" value="Name" style="rounded=0;whiteSpace=wrap;html=1;" vertex="1" parent="1">
          <mxGeometry x="320" y="330" width="80" height="30" as="geometry" />
        </mxCell>
        <mxCell id="SYz_vjeAxdqTbxEcC4c_-13" value="City" style="rounded=0;whiteSpace=wrap;html=1;" vertex="1" parent="1">
          <mxGeometry x="400" y="330" width="80" height="30" as="geometry" />
        </mxCell>
        <mxCell id="SYz_vjeAxdqTbxEcC4c_-14" value="Street" style="rounded=0;whiteSpace=wrap;html=1;" vertex="1" parent="1">
          <mxGeometry x="480" y="330" width="80" height="30" as="geometry" />
        </mxCell>
        <mxCell id="SYz_vjeAxdqTbxEcC4c_-15" value="State" style="rounded=0;whiteSpace=wrap;html=1;" vertex="1" parent="1">
          <mxGeometry x="560" y="330" width="80" height="30" as="geometry" />
        </mxCell>
        <mxCell id="SYz_vjeAxdqTbxEcC4c_-16" value="&#xa;&#xa;&lt;span style=&quot;color: rgb(0, 0, 0); font-family: helvetica; font-size: 12px; font-style: normal; font-weight: 400; letter-spacing: normal; text-align: center; text-indent: 0px; text-transform: none; word-spacing: 0px; background-color: rgb(248, 249, 250); text-decoration: underline; display: inline; float: none;&quot;&gt;Vin&lt;/span&gt;&#xa;&#xa;" style="rounded=0;whiteSpace=wrap;html=1;" vertex="1" parent="1">
          <mxGeometry x="240" y="410" width="80" height="30" as="geometry" />
        </mxCell>
        <mxCell id="SYz_vjeAxdqTbxEcC4c_-17" value="Engine_size" style="rounded=0;whiteSpace=wrap;html=1;" vertex="1" parent="1">
          <mxGeometry x="320" y="410" width="80" height="30" as="geometry" />
        </mxCell>
        <mxCell id="SYz_vjeAxdqTbxEcC4c_-21" value="&lt;span style=&quot;color: rgb(0 , 0 , 0) ; font-size: 12px ; font-style: normal ; font-weight: 400 ; letter-spacing: normal ; text-align: center ; text-indent: 0px ; text-transform: none ; word-spacing: 0px ; text-decoration: underline ; font-family: &amp;#34;helvetica&amp;#34; ; background-color: rgb(248 , 249 , 250) ; display: inline ; float: none&quot;&gt;Vin&lt;/span&gt;" style="rounded=0;whiteSpace=wrap;html=1;" vertex="1" parent="1">
          <mxGeometry x="240" y="490" width="80" height="30" as="geometry" />
        </mxCell>
        <mxCell id="SYz_vjeAxdqTbxEcC4c_-22" value="Tonage" style="rounded=0;whiteSpace=wrap;html=1;" vertex="1" parent="1">
          <mxGeometry x="320" y="490" width="80" height="30" as="geometry" />
        </mxCell>
        <mxCell id="SYz_vjeAxdqTbxEcC4c_-26" value="&#xa;&#xa;&lt;span style=&quot;color: rgb(0, 0, 0); font-family: helvetica; font-size: 12px; font-style: normal; font-weight: 400; letter-spacing: normal; text-align: center; text-indent: 0px; text-transform: none; word-spacing: 0px; background-color: rgb(248, 249, 250); text-decoration: underline; display: inline; float: none;&quot;&gt;Vin&lt;/span&gt;&#xa;&#xa;" style="rounded=0;whiteSpace=wrap;html=1;" vertex="1" parent="1">
          <mxGeometry x="240" y="570" width="80" height="30" as="geometry" />
        </mxCell>
        <mxCell id="SYz_vjeAxdqTbxEcC4c_-27" value="No_seats" style="rounded=0;whiteSpace=wrap;html=1;" vertex="1" parent="1">
          <mxGeometry x="320" y="570" width="80" height="30" as="geometry" />
        </mxCell>
        <mxCell id="SYz_vjeAxdqTbxEcC4c_-31" value="VEHICLE" style="text;html=1;strokeColor=none;fillColor=none;align=center;verticalAlign=middle;whiteSpace=wrap;rounded=0;fontStyle=1" vertex="1" parent="1">
          <mxGeometry x="240" y="130" width="100" height="30" as="geometry" />
        </mxCell>
        <mxCell id="SYz_vjeAxdqTbxEcC4c_-32" value="SALESPERSON" style="text;html=1;strokeColor=none;fillColor=none;align=center;verticalAlign=middle;whiteSpace=wrap;rounded=0;fontStyle=1" vertex="1" parent="1">
          <mxGeometry x="240" y="210" width="100" height="30" as="geometry" />
        </mxCell>
        <mxCell id="SYz_vjeAxdqTbxEcC4c_-33" value="CUSTOMER" style="text;html=1;strokeColor=none;fillColor=none;align=center;verticalAlign=middle;whiteSpace=wrap;rounded=0;fontStyle=1" vertex="1" parent="1">
          <mxGeometry x="240" y="290" width="100" height="30" as="geometry" />
        </mxCell>
        <mxCell id="SYz_vjeAxdqTbxEcC4c_-34" value="CAR" style="text;html=1;strokeColor=none;fillColor=none;align=center;verticalAlign=middle;whiteSpace=wrap;rounded=0;fontStyle=1" vertex="1" parent="1">
          <mxGeometry x="240" y="370" width="100" height="30" as="geometry" />
        </mxCell>
        <mxCell id="SYz_vjeAxdqTbxEcC4c_-35" value="TRUCK" style="text;html=1;strokeColor=none;fillColor=none;align=center;verticalAlign=middle;whiteSpace=wrap;rounded=0;fontStyle=1" vertex="1" parent="1">
          <mxGeometry x="240" y="450" width="100" height="30" as="geometry" />
        </mxCell>
        <mxCell id="SYz_vjeAxdqTbxEcC4c_-36" value="SUV" style="text;html=1;strokeColor=none;fillColor=none;align=center;verticalAlign=middle;whiteSpace=wrap;rounded=0;fontStyle=1" vertex="1" parent="1">
          <mxGeometry x="240" y="530" width="100" height="30" as="geometry" />
        </mxCell>
        <mxCell id="SYz_vjeAxdqTbxEcC4c_-37" value="&lt;span&gt;Vin&lt;/span&gt;" style="rounded=0;whiteSpace=wrap;html=1;fontStyle=0" vertex="1" parent="1">
          <mxGeometry x="240" y="650" width="80" height="30" as="geometry" />
        </mxCell>
        <mxCell id="SYz_vjeAxdqTbxEcC4c_-38" value="Sid" style="rounded=0;whiteSpace=wrap;html=1;fontStyle=0" vertex="1" parent="1">
          <mxGeometry x="320" y="650" width="80" height="30" as="geometry" />
        </mxCell>
        <mxCell id="SYz_vjeAxdqTbxEcC4c_-39" value="&lt;span&gt;Ssn&lt;/span&gt;" style="rounded=0;whiteSpace=wrap;html=1;fontStyle=0" vertex="1" parent="1">
          <mxGeometry x="400" y="650" width="80" height="30" as="geometry" />
        </mxCell>
        <mxCell id="SYz_vjeAxdqTbxEcC4c_-40" value="Date" style="rounded=0;whiteSpace=wrap;html=1;" vertex="1" parent="1">
          <mxGeometry x="480" y="650" width="80" height="30" as="geometry" />
        </mxCell>
        <mxCell id="SYz_vjeAxdqTbxEcC4c_-42" value="SALE" style="text;html=1;strokeColor=none;fillColor=none;align=center;verticalAlign=middle;whiteSpace=wrap;rounded=0;fontStyle=1" vertex="1" parent="1">
          <mxGeometry x="240" y="610" width="100" height="30" as="geometry" />
        </mxCell>
        <mxCell id="SYz_vjeAxdqTbxEcC4c_-43" value="" style="curved=1;endArrow=classic;html=1;entryX=0;entryY=0.5;entryDx=0;entryDy=0;exitX=0;exitY=0.5;exitDx=0;exitDy=0;" edge="1" parent="1" source="SYz_vjeAxdqTbxEcC4c_-16" target="SYz_vjeAxdqTbxEcC4c_-1">
          <mxGeometry width="50" height="50" relative="1" as="geometry">
            <mxPoint x="400" y="280" as="sourcePoint" />
            <mxPoint x="450" y="230" as="targetPoint" />
            <Array as="points">
              <mxPoint x="210" y="270" />
              <mxPoint x="210" y="200" />
            </Array>
          </mxGeometry>
        </mxCell>
        <mxCell id="SYz_vjeAxdqTbxEcC4c_-44" value="" style="curved=1;endArrow=classic;html=1;entryX=0;entryY=0.5;entryDx=0;entryDy=0;exitX=0;exitY=0.75;exitDx=0;exitDy=0;" edge="1" parent="1" source="SYz_vjeAxdqTbxEcC4c_-21" target="SYz_vjeAxdqTbxEcC4c_-1">
          <mxGeometry width="50" height="50" relative="1" as="geometry">
            <mxPoint x="250" y="435" as="sourcePoint" />
            <mxPoint x="250" y="195" as="targetPoint" />
            <Array as="points">
              <mxPoint x="190" y="280" />
              <mxPoint x="190" y="190" />
            </Array>
          </mxGeometry>
        </mxCell>
        <mxCell id="SYz_vjeAxdqTbxEcC4c_-45" value="" style="curved=1;endArrow=classic;html=1;entryX=0;entryY=0.5;entryDx=0;entryDy=0;exitX=0;exitY=0.75;exitDx=0;exitDy=0;" edge="1" parent="1" source="SYz_vjeAxdqTbxEcC4c_-37" target="SYz_vjeAxdqTbxEcC4c_-1">
          <mxGeometry width="50" height="50" relative="1" as="geometry">
            <mxPoint x="250" y="435" as="sourcePoint" />
            <mxPoint x="250" y="195" as="targetPoint" />
            <Array as="points">
              <mxPoint x="160" y="320" />
              <mxPoint x="150" y="240" />
              <mxPoint x="150" y="210" />
              <mxPoint x="170" y="190" />
              <mxPoint x="190" y="180" />
            </Array>
          </mxGeometry>
        </mxCell>
        <mxCell id="SYz_vjeAxdqTbxEcC4c_-46" value="" style="curved=1;endArrow=classic;html=1;entryX=0;entryY=0.5;entryDx=0;entryDy=0;exitX=0;exitY=0.5;exitDx=0;exitDy=0;" edge="1" parent="1" source="SYz_vjeAxdqTbxEcC4c_-26" target="SYz_vjeAxdqTbxEcC4c_-1">
          <mxGeometry width="50" height="50" relative="1" as="geometry">
            <mxPoint x="250" y="522.5" as="sourcePoint" />
            <mxPoint x="250" y="195" as="targetPoint" />
            <Array as="points">
              <mxPoint x="170" y="260" />
              <mxPoint x="170" y="210" />
              <mxPoint x="200" y="180" />
            </Array>
          </mxGeometry>
        </mxCell>
        <mxCell id="SYz_vjeAxdqTbxEcC4c_-47" value="" style="curved=1;endArrow=classic;html=1;entryX=0.75;entryY=1;entryDx=0;entryDy=0;" edge="1" parent="1" source="SYz_vjeAxdqTbxEcC4c_-39" target="SYz_vjeAxdqTbxEcC4c_-11">
          <mxGeometry width="50" height="50" relative="1" as="geometry">
            <mxPoint x="400" y="450" as="sourcePoint" />
            <mxPoint x="450" y="400" as="targetPoint" />
            <Array as="points">
              <mxPoint x="450" y="450" />
              <mxPoint x="400" y="400" />
            </Array>
          </mxGeometry>
        </mxCell>
        <mxCell id="SYz_vjeAxdqTbxEcC4c_-48" value="" style="curved=1;endArrow=classic;html=1;entryX=0.5;entryY=1;entryDx=0;entryDy=0;exitX=0.5;exitY=1;exitDx=0;exitDy=0;" edge="1" parent="1" source="SYz_vjeAxdqTbxEcC4c_-38" target="SYz_vjeAxdqTbxEcC4c_-6">
          <mxGeometry width="50" height="50" relative="1" as="geometry">
            <mxPoint x="450.6976744186047" y="660" as="sourcePoint" />
            <mxPoint x="310" y="370" as="targetPoint" />
            <Array as="points">
              <mxPoint x="650" y="770" />
              <mxPoint x="700" y="260" />
              <mxPoint x="430" y="320" />
            </Array>
          </mxGeometry>
        </mxCell>
        <mxCell id="SYz_vjeAxdqTbxEcC4c_-50" value="" style="endArrow=none;html=1;exitX=0;exitY=0.75;exitDx=0;exitDy=0;entryX=0;entryY=0.75;entryDx=0;entryDy=0;fontStyle=4" edge="1" parent="1" source="SYz_vjeAxdqTbxEcC4c_-37" target="SYz_vjeAxdqTbxEcC4c_-40">
          <mxGeometry width="50" height="50" relative="1" as="geometry">
            <mxPoint x="400" y="540" as="sourcePoint" />
            <mxPoint x="450" y="490" as="targetPoint" />
          </mxGeometry>
        </mxCell>
        <mxCell id="SYz_vjeAxdqTbxEcC4c_-51" value="&lt;span style=&quot;font-size: 18px;&quot;&gt;&lt;br style=&quot;font-size: 18px;&quot;&gt;&lt;span style=&quot;color: rgb(85, 85, 85); font-family: custom_body_font, sans-serif; font-size: 18px; font-style: normal; letter-spacing: normal; text-indent: 0px; text-transform: none; word-spacing: 0px; background-color: rgb(255, 255, 255); display: inline; float: none;&quot;&gt;VEHICLE DATABASE EER SCHEMA&lt;/span&gt;&lt;br style=&quot;font-size: 18px;&quot;&gt;&lt;/span&gt;" style="text;html=1;strokeColor=none;fillColor=none;align=center;verticalAlign=middle;whiteSpace=wrap;rounded=0;fontSize=18;fontStyle=1" vertex="1" parent="1">
          <mxGeometry x="251" y="80" width="326" height="40" as="geometry" />
        </mxCell>
      </root>
    </mxGraphModel>
  </diagram>
</mxfile>
